<svg xmlns="http://www.w3.org/2000/svg" xmlns:xlink="http://www.w3.org/1999/xlink" zoomAndPan="magnify" preserveAspectRatio="xMidYMid meet" version="1.0" viewBox="59.52 240.81 191.25 191.25"><defs><clipPath id="3f398a3982"><path d="M 59.523438 240.8125 L 250.773438 240.8125 L 250.773438 432.0625 L 59.523438 432.0625 Z M 59.523438 240.8125 " clip-rule="nonzero"/></clipPath></defs><g clip-path="url(#3f398a3982)"><path fill="#312f2f" d="M 155.082031 240.8125 C 155.132812 240.8125 155.179688 240.8125 155.230469 240.816406 C 159.984375 240.835938 164.300781 242.789062 167.429688 245.917969 C 170.574219 249.0625 172.523438 253.410156 172.523438 258.199219 L 172.535156 258.199219 L 172.535156 319.050781 L 233.386719 319.050781 C 238.167969 319.050781 242.515625 321.007812 245.667969 324.15625 C 248.800781 327.292969 250.753906 331.613281 250.773438 336.375 C 250.773438 336.421875 250.773438 336.472656 250.773438 336.519531 C 250.75 341.273438 248.800781 345.585938 245.667969 348.71875 C 242.523438 351.863281 238.175781 353.8125 233.386719 353.8125 L 233.386719 353.824219 L 172.535156 353.824219 L 172.535156 414.675781 C 172.535156 419.457031 170.578125 423.808594 167.429688 426.957031 C 164.292969 430.089844 159.972656 432.042969 155.210938 432.058594 C 155.164062 432.0625 155.113281 432.0625 155.066406 432.058594 C 150.3125 432.039062 145.996094 430.089844 142.867188 426.957031 C 139.722656 423.8125 137.773438 419.464844 137.773438 414.675781 L 137.761719 414.675781 L 137.761719 353.824219 L 76.910156 353.824219 C 72.128906 353.824219 67.78125 351.871094 64.628906 348.71875 C 61.496094 345.585938 59.542969 341.261719 59.527344 336.503906 C 59.523438 336.453125 59.523438 336.40625 59.527344 336.355469 C 59.546875 331.601562 61.496094 327.285156 64.628906 324.15625 C 67.773438 321.011719 72.121094 319.0625 76.910156 319.0625 L 76.910156 319.050781 L 137.761719 319.050781 L 137.761719 258.199219 C 137.761719 253.417969 139.714844 249.066406 142.867188 245.917969 C 146 242.78125 150.324219 240.832031 155.082031 240.8125 " fill-opacity="1" fill-rule="nonzero"/></g></svg>