<svg xmlns="http://www.w3.org/2000/svg" xmlns:xlink="http://www.w3.org/1999/xlink" zoomAndPan="magnify" preserveAspectRatio="xMidYMid meet" version="1.0" viewBox="93.15 255.36 124.5 162"><defs><clipPath id="939394dd2d"><path d="M 93.148438 255.363281 L 217.648438 255.363281 L 217.648438 417.363281 L 93.148438 417.363281 Z M 93.148438 255.363281 " clip-rule="nonzero"/></clipPath></defs><g clip-path="url(#939394dd2d)"><path fill="#f8f8f8" d="M 155.386719 255.828125 C 121.070312 255.828125 93.152344 283.613281 93.152344 317.769531 C 93.152344 350.828125 149.371094 410.699219 151.761719 413.234375 L 155.386719 417.066406 L 159.011719 413.234375 C 161.402344 410.703125 217.621094 350.832031 217.621094 317.769531 C 217.617188 283.613281 189.703125 255.828125 155.386719 255.828125 Z M 155.386719 402.53125 C 137.988281 383.363281 103.101562 340.28125 103.101562 317.769531 C 103.101562 289.074219 126.554688 265.726562 155.386719 265.726562 C 184.21875 265.726562 207.671875 289.074219 207.671875 317.769531 C 207.671875 340.265625 172.785156 383.359375 155.386719 402.53125 Z M 155.386719 402.53125 " fill-opacity="1" fill-rule="nonzero"/></g><path fill="#f8f8f8" d="M 159.945312 289.929688 L 150 289.929688 L 150 314.570312 L 125.242188 314.570312 L 125.242188 324.46875 L 150 324.46875 L 150 349.109375 L 159.945312 349.109375 L 159.945312 324.46875 L 184.699219 324.46875 L 184.699219 314.570312 L 159.945312 314.570312 Z M 159.945312 289.929688 " fill-opacity="1" fill-rule="nonzero"/></svg>