<svg xmlns="http://www.w3.org/2000/svg" xmlns:xlink="http://www.w3.org/1999/xlink" width="414" zoomAndPan="magnify" viewBox="0 0 310.5 671.999985" height="896" preserveAspectRatio="xMidYMid meet" version="1.0"><defs><clipPath id="888be6c729"><path d="M 0.316406 0.617188 L 309 0.617188 L 309 305.789062 L 0.316406 305.789062 Z M 0.316406 0.617188 " clip-rule="nonzero"/></clipPath></defs><g clip-path="url(#888be6c729)"><path fill="#c43c1e" d="M 302.378906 136.226562 C 310.8125 144.660156 310.8125 158.339844 302.378906 166.777344 L 169.773438 299.460938 C 165.558594 303.679688 160.027344 305.789062 154.5 305.789062 C 148.988281 305.789062 143.457031 303.679688 139.242188 299.460938 L 6.636719 166.777344 C -1.792969 158.339844 -1.792969 144.660156 6.636719 136.226562 C 15.070312 127.789062 28.738281 127.789062 37.191406 136.226562 L 154.5 253.625 L 271.828125 136.226562 C 280.28125 127.789062 293.949219 127.789062 302.378906 136.226562 Z M 139.242188 170.179688 C 143.457031 174.398438 148.988281 176.507812 154.5 176.507812 C 160.027344 176.507812 165.558594 174.398438 169.773438 170.179688 L 302.378906 37.515625 C 310.8125 29.058594 310.8125 15.378906 302.378906 6.941406 C 293.949219 -1.492188 280.28125 -1.492188 271.828125 6.941406 L 154.5 124.34375 L 37.191406 6.941406 C 28.738281 -1.492188 15.070312 -1.492188 6.636719 6.941406 C -1.792969 15.378906 -1.792969 29.058594 6.636719 37.515625 Z M 139.242188 170.179688 " fill-opacity="1" fill-rule="nonzero"/></g></svg>