<svg xmlns="http://www.w3.org/2000/svg" xmlns:xlink="http://www.w3.org/1999/xlink" zoomAndPan="magnify" preserveAspectRatio="xMidYMid meet" version="1.0" viewBox="93.15 294.2 124.5 84.75"><defs><clipPath id="094b25bc62"><path d="M 93.148438 294.199219 L 217.648438 294.199219 L 217.648438 378.949219 L 93.148438 378.949219 Z M 93.148438 294.199219 " clip-rule="nonzero"/></clipPath></defs><g clip-path="url(#094b25bc62)"><path fill="#312f2f" d="M 208.503906 327.421875 L 124.488281 327.421875 C 124.488281 327.421875 142.1875 309.878906 142.65625 309.277344 C 143.871094 307.722656 144.597656 305.773438 144.597656 303.652344 C 144.597656 301.308594 143.710938 299.179688 142.261719 297.550781 L 141.519531 296.808594 C 139.894531 295.363281 137.757812 294.472656 135.40625 294.472656 C 132.992188 294.472656 130.800781 295.417969 129.160156 296.9375 C 129.160156 296.9375 95.261719 330.730469 95.085938 330.953125 C 93.886719 332.503906 93.167969 334.4375 93.167969 336.550781 C 93.167969 338.65625 93.886719 340.59375 95.085938 342.144531 C 95.570312 342.769531 129.582031 376.582031 129.582031 376.582031 C 131.160156 377.859375 133.167969 378.625 135.359375 378.625 C 140.433594 378.625 144.550781 374.519531 144.550781 369.453125 C 144.550781 367.230469 143.757812 365.191406 142.445312 363.605469 L 124.488281 345.679688 L 208.503906 345.679688 C 213.554688 345.679688 217.648438 341.589844 217.648438 336.550781 C 217.648438 331.507812 213.554688 327.421875 208.503906 327.421875 " fill-opacity="1" fill-rule="nonzero"/></g></svg>