<svg xmlns="http://www.w3.org/2000/svg" xmlns:xlink="http://www.w3.org/1999/xlink" zoomAndPan="magnify" preserveAspectRatio="xMidYMid meet" version="1.0" viewBox="111.68 292.97 87 87"><defs><clipPath id="a3f9272375"><path d="M 111.679688 292.972656 L 198.679688 292.972656 L 198.679688 379.972656 L 111.679688 379.972656 Z M 111.679688 292.972656 " clip-rule="nonzero"/></clipPath><clipPath id="92c3954526"><path d="M 133.605469 315.941406 L 160.605469 315.941406 L 160.605469 342.941406 L 133.605469 342.941406 Z M 133.605469 315.941406 " clip-rule="nonzero"/></clipPath></defs><g clip-path="url(#a3f9272375)"><path fill="#312f2f" d="M 167.601562 356.589844 L 188.910156 377.890625 C 191.019531 380 194.445312 380 196.554688 377.890625 C 198.664062 375.78125 198.664062 372.355469 196.554688 370.242188 L 175.257812 348.957031 C 179.542969 343.128906 182.074219 335.933594 182.074219 328.152344 C 182.074219 308.734375 166.3125 292.972656 146.894531 292.972656 C 127.476562 292.972656 111.714844 308.734375 111.714844 328.152344 C 111.714844 347.570312 127.476562 363.332031 146.894531 363.332031 C 154.632812 363.332031 161.789062 360.832031 167.601562 356.589844 Z M 146.894531 303.785156 C 160.34375 303.785156 171.261719 314.703125 171.261719 328.152344 C 171.261719 341.601562 160.34375 352.519531 146.894531 352.519531 C 133.445312 352.519531 122.527344 341.601562 122.527344 328.152344 C 122.527344 314.703125 133.445312 303.785156 146.894531 303.785156 Z M 146.894531 303.785156 " fill-opacity="1" fill-rule="evenodd"/></g><g clip-path="url(#92c3954526)"><path fill="#312f2f" d="M 150.285156 329.445312 L 160.613281 339.769531 L 157.4375 342.945312 L 147.109375 332.617188 L 136.78125 342.945312 L 133.605469 339.769531 L 143.933594 329.445312 L 133.605469 319.117188 L 136.78125 315.941406 L 147.109375 326.269531 L 157.4375 315.941406 L 160.613281 319.117188 L 150.285156 329.445312 " fill-opacity="1" fill-rule="nonzero"/></g></svg>