<svg xmlns="http://www.w3.org/2000/svg" xmlns:xlink="http://www.w3.org/1999/xlink" zoomAndPan="magnify" preserveAspectRatio="xMidYMid meet" version="1.0" viewBox="94 275 123 123.94"><defs><clipPath id="3952825605"><path d="M 94 275 L 217 275 L 217 398.941406 L 94 398.941406 Z M 94 275 " clip-rule="nonzero"/></clipPath></defs><g clip-path="url(#3952825605)"><path fill="#312f2f" d="M 214.078125 382.574219 C 217.609375 386.105469 217.609375 391.839844 214.078125 395.371094 C 210.546875 398.902344 204.816406 398.902344 201.285156 395.371094 L 155.367188 349.453125 L 109.449219 395.371094 C 105.917969 398.902344 100.1875 398.902344 96.65625 395.371094 C 93.125 391.839844 93.125 386.105469 96.65625 382.574219 L 142.570312 336.65625 L 96.65625 290.742188 C 93.125 287.210938 93.125 281.476562 96.65625 277.945312 C 100.1875 274.414062 105.917969 274.414062 109.449219 277.945312 L 155.367188 323.863281 L 201.285156 277.945312 C 204.816406 274.414062 210.546875 274.414062 214.078125 277.945312 C 217.609375 281.476562 217.609375 287.210938 214.078125 290.742188 L 168.164062 336.65625 Z M 214.078125 382.574219 " fill-opacity="1" fill-rule="nonzero"/></g></svg>