<svg xmlns="http://www.w3.org/2000/svg" xmlns:xlink="http://www.w3.org/1999/xlink" zoomAndPan="magnify" preserveAspectRatio="xMidYMid meet" version="1.0" viewBox="94.03 275.32 122.25 122.25"><defs><clipPath id="c0907f8224"><path d="M 94.027344 275.320312 L 216.277344 275.320312 L 216.277344 397.570312 L 94.027344 397.570312 Z M 94.027344 275.320312 " clip-rule="nonzero"/></clipPath></defs><g clip-path="url(#c0907f8224)"><path fill="#000000" d="M 155.152344 397.566406 C 138.824219 397.566406 123.476562 391.210938 111.929688 379.664062 C 100.386719 368.121094 94.027344 352.769531 94.027344 336.441406 C 94.027344 320.117188 100.386719 304.765625 111.929688 293.222656 C 123.476562 281.675781 138.824219 275.320312 155.152344 275.320312 C 171.480469 275.320312 186.828125 281.675781 198.375 293.222656 C 209.917969 304.765625 216.277344 320.117188 216.277344 336.441406 C 216.277344 352.769531 209.917969 368.121094 198.375 379.664062 C 186.828125 391.210938 171.480469 397.566406 155.152344 397.566406 Z M 155.152344 279.277344 C 139.882812 279.277344 125.527344 285.222656 114.730469 296.019531 C 103.933594 306.816406 97.984375 321.171875 97.984375 336.441406 C 97.984375 351.710938 103.933594 366.070312 114.730469 376.867188 C 125.527344 387.664062 139.882812 393.609375 155.152344 393.609375 C 170.421875 393.609375 184.777344 387.664062 195.574219 376.867188 C 206.375 366.070312 212.320312 351.710938 212.320312 336.441406 C 212.320312 321.171875 206.375 306.816406 195.574219 296.019531 C 184.777344 285.222656 170.421875 279.277344 155.152344 279.277344 Z M 155.152344 328.523438 C 148.796875 328.523438 143.625 321.867188 143.625 313.6875 C 143.625 305.507812 148.796875 298.851562 155.152344 298.851562 C 161.507812 298.851562 166.679688 305.507812 166.679688 313.6875 C 166.679688 321.867188 161.507812 328.523438 155.152344 328.523438 Z M 128.136719 331.796875 C 125.777344 331.796875 123.5625 330.652344 121.871094 328.554688 C 120.246094 326.542969 119.285156 323.847656 119.171875 320.96875 C 119.054688 318.089844 119.792969 315.328125 121.253906 313.1875 C 122.835938 310.871094 125.066406 309.539062 127.53125 309.4375 C 129.996094 309.339844 132.328125 310.488281 134.089844 312.671875 C 135.714844 314.6875 136.675781 317.382812 136.789062 320.261719 C 136.90625 323.140625 136.167969 325.902344 134.707031 328.039062 C 133.125 330.359375 130.894531 331.691406 128.429688 331.789062 C 128.332031 331.792969 128.234375 331.796875 128.136719 331.796875 Z M 182.171875 331.796875 C 182.074219 331.796875 181.976562 331.792969 181.875 331.789062 C 179.410156 331.691406 177.179688 330.359375 175.597656 328.039062 C 174.140625 325.902344 173.398438 323.136719 173.515625 320.261719 C 173.632812 317.382812 174.589844 314.6875 176.214844 312.671875 C 177.980469 310.488281 180.300781 309.34375 182.773438 309.4375 C 185.242188 309.539062 187.46875 310.871094 189.050781 313.1875 C 190.511719 315.328125 191.25 318.089844 191.136719 320.96875 C 191.019531 323.847656 190.058594 326.542969 188.433594 328.554688 C 186.742188 330.652344 184.527344 331.796875 182.171875 331.796875 Z M 175.492188 320.339844 L 175.496094 320.339844 Z M 172.019531 363.8125 L 138.9375 363.8125 C 132.917969 363.8125 128.019531 358.914062 128.019531 352.894531 C 128.019531 347.402344 131.691406 341.757812 138.363281 337 C 142.984375 333.707031 148.984375 331.878906 155.261719 331.851562 C 161.648438 331.820312 167.796875 333.699219 172.558594 337.121094 C 174.828125 338.75 182.238281 344.710938 182.285156 352.882812 C 182.296875 354.355469 182.316406 357.8125 179.691406 360.640625 C 177.046875 363.484375 173.453125 363.808594 172.027344 363.8125 C 172.027344 363.8125 172.023438 363.8125 172.019531 363.8125 Z M 125.929688 359.445312 L 118.613281 359.445312 C 117.589844 359.445312 114.980469 359.214844 112.8125 357.078125 C 111.265625 355.550781 110.414062 353.519531 110.414062 351.359375 C 110.414062 348.625 111.613281 345.886719 113.976562 343.226562 C 115.351562 341.679688 116.832031 340.382812 118.378906 339.375 C 121.691406 337.210938 125.527344 335.925781 129.78125 335.558594 L 133.628906 335.222656 L 130.75 337.761719 C 128.933594 339.367188 126.5 342.144531 125.214844 346.265625 C 123.65625 351.261719 124.640625 355.625 125.367188 357.777344 Z M 191.691406 359.445312 L 184.378906 359.445312 L 184.9375 357.777344 C 185.664062 355.625 186.648438 351.261719 185.089844 346.265625 C 183.804688 342.144531 181.371094 339.367188 179.554688 337.761719 L 176.675781 335.222656 L 180.523438 335.558594 C 184.777344 335.925781 188.613281 337.210938 191.929688 339.375 C 193.472656 340.382812 194.953125 341.679688 196.328125 343.226562 C 198.695312 345.886719 199.894531 348.625 199.894531 351.359375 C 199.894531 353.519531 199.039062 355.550781 197.492188 357.078125 C 195.324219 359.214844 192.714844 359.445312 191.691406 359.445312 Z M 191.691406 359.445312 " fill-opacity="1" fill-rule="nonzero"/></g></svg>