<svg xmlns="http://www.w3.org/2000/svg" xmlns:xlink="http://www.w3.org/1999/xlink" zoomAndPan="magnify" preserveAspectRatio="xMidYMid meet" version="1.0" viewBox="117 290.14 76.69 93.02"><defs><clipPath id="f54490439d"><path d="M 133 290.136719 L 177 290.136719 L 177 352 L 133 352 Z M 133 290.136719 " clip-rule="nonzero"/></clipPath><clipPath id="245e4ee2a5"><path d="M 117 329 L 193.6875 329 L 193.6875 383.136719 L 117 383.136719 Z M 117 329 " clip-rule="nonzero"/></clipPath></defs><g clip-path="url(#f54490439d)"><path fill="#312f2f" d="M 155.082031 290.152344 C 143.304688 290.152344 133.757812 299.765625 133.757812 311.625 C 133.757812 320 144.398438 338.824219 150.648438 349.15625 C 152.671875 352.503906 157.492188 352.503906 159.519531 349.15625 C 165.765625 338.824219 176.410156 320 176.410156 311.625 C 176.410156 299.765625 166.859375 290.152344 155.082031 290.152344 Z M 155.082031 324.898438 C 148.066406 324.898438 142.378906 319.171875 142.378906 312.105469 C 142.378906 305.039062 148.066406 299.3125 155.082031 299.3125 C 162.101562 299.3125 167.789062 305.039062 167.789062 312.105469 C 167.789062 319.171875 162.101562 324.898438 155.082031 324.898438 Z M 155.082031 324.898438 " fill-opacity="1" fill-rule="nonzero"/></g><path fill="#312f2f" d="M 162.085938 312.105469 C 162.085938 312.566406 162.039062 313.027344 161.949219 313.480469 C 161.859375 313.933594 161.726562 314.375 161.550781 314.804688 C 161.375 315.230469 161.160156 315.636719 160.90625 316.023438 C 160.648438 316.40625 160.359375 316.761719 160.035156 317.089844 C 159.710938 317.417969 159.355469 317.710938 158.972656 317.96875 C 158.589844 318.222656 158.1875 318.441406 157.761719 318.617188 C 157.335938 318.796875 156.898438 318.929688 156.449219 319.019531 C 155.996094 319.109375 155.542969 319.15625 155.082031 319.15625 C 154.621094 319.15625 154.167969 319.109375 153.714844 319.019531 C 153.265625 318.929688 152.828125 318.796875 152.402344 318.617188 C 151.976562 318.441406 151.574219 318.222656 151.191406 317.96875 C 150.808594 317.710938 150.457031 317.417969 150.132812 317.089844 C 149.804688 316.761719 149.515625 316.40625 149.261719 316.023438 C 149.003906 315.636719 148.789062 315.230469 148.613281 314.804688 C 148.4375 314.375 148.304688 313.933594 148.214844 313.480469 C 148.125 313.027344 148.078125 312.566406 148.078125 312.105469 C 148.078125 311.640625 148.125 311.183594 148.214844 310.730469 C 148.304688 310.273438 148.4375 309.835938 148.613281 309.40625 C 148.789062 308.980469 149.003906 308.574219 149.261719 308.1875 C 149.515625 307.800781 149.804688 307.445312 150.132812 307.121094 C 150.457031 306.792969 150.808594 306.5 151.191406 306.242188 C 151.574219 305.984375 151.976562 305.769531 152.402344 305.589844 C 152.828125 305.414062 153.265625 305.28125 153.714844 305.191406 C 154.167969 305.097656 154.621094 305.054688 155.082031 305.054688 C 155.542969 305.054688 155.996094 305.097656 156.449219 305.191406 C 156.898438 305.28125 157.335938 305.414062 157.761719 305.589844 C 158.1875 305.769531 158.589844 305.984375 158.972656 306.242188 C 159.355469 306.5 159.710938 306.792969 160.035156 307.121094 C 160.359375 307.445312 160.648438 307.800781 160.90625 308.1875 C 161.160156 308.574219 161.375 308.980469 161.550781 309.40625 C 161.726562 309.835938 161.859375 310.273438 161.949219 310.730469 C 162.039062 311.183594 162.085938 311.640625 162.085938 312.105469 Z M 162.085938 312.105469 " fill-opacity="1" fill-rule="nonzero"/><g clip-path="url(#245e4ee2a5)"><path fill="#312f2f" d="M 193.011719 375.59375 L 186.640625 335.3125 C 186.136719 332.136719 183.421875 329.804688 180.230469 329.804688 L 173.167969 329.804688 C 172.382812 331.464844 171.550781 333.140625 170.691406 334.816406 L 175.503906 334.816406 C 178.097656 334.816406 180.304688 336.710938 180.710938 339.289062 L 182.226562 348.878906 L 179.886719 348.878906 C 174.683594 348.878906 169.722656 347.292969 165.539062 344.359375 C 164.71875 345.8125 163.90625 347.222656 163.121094 348.570312 C 163.574219 348.882812 164.03125 349.175781 164.5 349.460938 L 154.015625 361.722656 L 152.765625 359.789062 C 150.445312 356.203125 146.515625 354.058594 142.265625 354.058594 L 136.039062 354.058594 L 145.71875 346.273438 C 144.929688 344.898438 144.121094 343.46875 143.3125 342.011719 L 128.324219 354.058594 L 127.121094 354.058594 L 129.457031 339.289062 C 129.867188 336.710938 132.074219 334.816406 134.664062 334.816406 L 139.476562 334.816406 C 138.617188 333.140625 137.785156 331.464844 137 329.804688 L 129.941406 329.804688 C 126.746094 329.804688 124.03125 332.140625 123.527344 335.3125 L 117.160156 375.59375 C 116.53125 379.5625 119.578125 383.15625 123.570312 383.15625 L 186.597656 383.15625 C 190.589844 383.15625 193.636719 379.5625 193.011719 375.59375 Z M 168.960938 351.664062 C 172.394531 353.015625 176.085938 353.722656 179.882812 353.722656 L 182.992188 353.722656 L 184.574219 363.726562 L 158.644531 363.726562 Z M 129.492188 378.144531 C 126.246094 378.144531 123.773438 375.226562 124.285156 372.003906 L 126.355469 358.902344 L 142.261719 358.902344 C 144.882812 358.902344 147.300781 360.222656 148.730469 362.433594 L 158.902344 378.144531 Z M 180.675781 378.144531 L 164.640625 378.144531 L 158.445312 368.570312 L 185.335938 368.570312 L 185.882812 372.003906 C 186.390625 375.226562 183.917969 378.144531 180.675781 378.144531 Z M 180.675781 378.144531 " fill-opacity="1" fill-rule="nonzero"/></g></svg>