<svg xmlns="http://www.w3.org/2000/svg" xmlns:xlink="http://www.w3.org/1999/xlink" zoomAndPan="magnify" preserveAspectRatio="xMidYMid meet" version="1.0" viewBox="49.08 152.79 211.92 317.26"><defs><clipPath id="54ba87c68f"><path d="M 49.078125 152.792969 L 261 152.792969 L 261 470.042969 L 49.078125 470.042969 Z M 49.078125 152.792969 " clip-rule="nonzero"/></clipPath></defs><g clip-path="url(#54ba87c68f)"><path fill="#312f2f" d="M 155.191406 152.792969 C 96.761719 152.792969 49.398438 200.140625 49.398438 258.542969 C 49.394531 278.367188 54.851562 296.910156 64.347656 312.765625 L 155.1875 470.054688 L 246.097656 312.65625 C 255.546875 296.824219 260.980469 278.320312 260.980469 258.546875 C 260.984375 200.136719 213.621094 152.792969 155.191406 152.792969 Z M 155.191406 293.933594 C 135.640625 293.933594 119.789062 278.089844 119.792969 258.542969 C 119.792969 239 135.644531 223.15625 155.191406 223.15625 C 174.746094 223.15625 190.597656 239 190.597656 258.542969 C 190.59375 278.089844 174.746094 293.933594 155.191406 293.933594 Z M 155.191406 293.933594 " fill-opacity="1" fill-rule="nonzero"/></g></svg>