<svg xmlns="http://www.w3.org/2000/svg" xmlns:xlink="http://www.w3.org/1999/xlink" zoomAndPan="magnify" preserveAspectRatio="xMidYMid meet" version="1.0" viewBox="77 168.79 156.73 177"><defs><clipPath id="504dd03ab4"><path d="M 77 168.792969 L 233.726562 168.792969 L 233.726562 345.792969 L 77 345.792969 Z M 77 168.792969 " clip-rule="nonzero"/></clipPath></defs><g clip-path="url(#504dd03ab4)"><path fill="#312f2f" d="M 150.332031 199.421875 C 160.074219 205.609375 166.859375 215.914062 168.042969 227.695312 C 171.878906 229.464844 176.304688 230.640625 181.027344 230.640625 C 198.144531 230.640625 212.015625 216.800781 212.015625 199.71875 C 212.015625 182.636719 198.144531 168.792969 181.027344 168.792969 C 164.203125 169.089844 150.332031 182.636719 150.332031 199.421875 Z M 129.96875 262.449219 C 147.085938 262.449219 160.957031 248.605469 160.957031 231.523438 C 160.957031 214.441406 147.085938 200.601562 129.96875 200.601562 C 112.851562 200.601562 98.976562 214.441406 98.976562 231.523438 C 98.976562 248.605469 112.851562 262.449219 129.96875 262.449219 Z M 142.953125 264.507812 L 116.6875 264.507812 C 94.847656 264.507812 77.136719 282.179688 77.136719 303.972656 L 77.136719 336.664062 L 79.203125 337.253906 C 99.863281 343.734375 118.164062 345.792969 132.917969 345.792969 C 161.84375 345.792969 178.667969 337.546875 179.847656 336.957031 L 181.914062 335.78125 L 182.207031 335.78125 L 182.207031 303.972656 C 182.503906 282.179688 164.792969 264.507812 142.953125 264.507812 Z M 194.011719 232.703125 L 168.042969 232.703125 C 167.746094 243.011719 163.320312 252.433594 156.234375 259.207031 C 175.714844 265.097656 189.882812 282.769531 189.882812 303.972656 L 189.882812 313.691406 C 215.558594 312.808594 230.316406 305.445312 231.203125 305.152344 L 233.265625 303.972656 L 233.5625 303.972656 L 233.5625 272.167969 C 233.5625 250.375 215.855469 232.703125 194.011719 232.703125 Z M 194.011719 232.703125 " fill-opacity="1" fill-rule="nonzero"/></g></svg>