<svg xmlns="http://www.w3.org/2000/svg" xmlns:xlink="http://www.w3.org/1999/xlink" width="414" zoomAndPan="magnify" viewBox="0 0 310.5 671.999985" height="896" preserveAspectRatio="xMidYMid meet" version="1.0"><defs><clipPath id="16349ea853"><path d="M 148 130 L 162 130 L 162 313.289062 L 148 313.289062 Z M 148 130 " clip-rule="nonzero"/></clipPath><clipPath id="827b3f69da"><path d="M 83.570312 0.539062 L 226.820312 0.539062 L 226.820312 144 L 83.570312 144 Z M 83.570312 0.539062 " clip-rule="nonzero"/></clipPath></defs><g clip-path="url(#16349ea853)"><path fill="#455a64" d="M 155.195312 313.289062 C 154.769531 313.289062 154.34375 313.25 153.925781 313.164062 C 153.507812 313.082031 153.101562 312.957031 152.707031 312.792969 C 152.3125 312.628906 151.9375 312.429688 151.582031 312.191406 C 151.226562 311.953125 150.898438 311.683594 150.59375 311.382812 C 150.292969 311.078125 150.023438 310.75 149.785156 310.394531 C 149.550781 310.039062 149.347656 309.664062 149.183594 309.269531 C 149.023438 308.871094 148.898438 308.464844 148.816406 308.046875 C 148.730469 307.625 148.691406 307.203125 148.691406 306.773438 L 148.691406 137.367188 C 148.691406 136.941406 148.730469 136.515625 148.816406 136.097656 C 148.898438 135.675781 149.023438 135.269531 149.183594 134.875 C 149.347656 134.480469 149.550781 134.105469 149.785156 133.75 C 150.023438 133.394531 150.292969 133.0625 150.59375 132.761719 C 150.898438 132.457031 151.226562 132.1875 151.582031 131.949219 C 151.9375 131.714844 152.3125 131.511719 152.707031 131.347656 C 153.101562 131.183594 153.507812 131.0625 153.925781 130.976562 C 154.34375 130.894531 154.769531 130.851562 155.195312 130.851562 C 155.621094 130.851562 156.046875 130.894531 156.464844 130.976562 C 156.882812 131.0625 157.289062 131.183594 157.683594 131.347656 C 158.078125 131.511719 158.453125 131.714844 158.808594 131.949219 C 159.164062 132.1875 159.492188 132.457031 159.796875 132.761719 C 160.097656 133.0625 160.367188 133.394531 160.605469 133.75 C 160.839844 134.105469 161.042969 134.480469 161.207031 134.875 C 161.367188 135.269531 161.492188 135.675781 161.574219 136.097656 C 161.660156 136.515625 161.699219 136.941406 161.699219 137.367188 L 161.699219 306.773438 C 161.699219 307.203125 161.660156 307.625 161.574219 308.046875 C 161.492188 308.464844 161.367188 308.871094 161.207031 309.269531 C 161.042969 309.664062 160.839844 310.039062 160.605469 310.394531 C 160.367188 310.75 160.097656 311.078125 159.796875 311.382812 C 159.492188 311.683594 159.164062 311.953125 158.808594 312.191406 C 158.453125 312.429688 158.078125 312.628906 157.683594 312.792969 C 157.289062 312.957031 156.882812 313.082031 156.464844 313.164062 C 156.046875 313.25 155.621094 313.289062 155.195312 313.289062 Z M 155.195312 313.289062 " fill-opacity="1" fill-rule="nonzero"/></g><g clip-path="url(#827b3f69da)"><path fill="#c43c1e" d="M 226.753906 72.210938 C 226.753906 73.386719 226.726562 74.558594 226.667969 75.730469 C 226.613281 76.898438 226.527344 78.070312 226.410156 79.238281 C 226.296875 80.40625 226.152344 81.566406 225.980469 82.726562 C 225.808594 83.890625 225.609375 85.042969 225.378906 86.195312 C 225.152344 87.34375 224.894531 88.488281 224.609375 89.625 C 224.328125 90.765625 224.015625 91.894531 223.675781 93.015625 C 223.335938 94.140625 222.96875 95.253906 222.574219 96.359375 C 222.179688 97.460938 221.757812 98.554688 221.308594 99.640625 C 220.859375 100.722656 220.386719 101.796875 219.886719 102.855469 C 219.382812 103.917969 218.859375 104.964844 218.304688 105.996094 C 217.753906 107.03125 217.175781 108.050781 216.574219 109.058594 C 215.972656 110.066406 215.347656 111.054688 214.695312 112.03125 C 214.042969 113.007812 213.371094 113.964844 212.671875 114.90625 C 211.976562 115.847656 211.253906 116.773438 210.511719 117.679688 C 209.769531 118.585938 209.003906 119.476562 208.21875 120.34375 C 207.429688 121.214844 206.625 122.0625 205.796875 122.890625 C 204.96875 123.722656 204.121094 124.53125 203.253906 125.316406 C 202.382812 126.105469 201.496094 126.871094 200.59375 127.613281 C 199.6875 128.359375 198.765625 129.082031 197.824219 129.78125 C 196.882812 130.476562 195.925781 131.152344 194.953125 131.804688 C 193.976562 132.457031 192.988281 133.085938 191.984375 133.6875 C 190.980469 134.289062 189.960938 134.867188 188.929688 135.421875 C 187.894531 135.972656 186.851562 136.5 185.792969 137.003906 C 184.734375 137.503906 183.664062 137.980469 182.582031 138.429688 C 181.5 138.878906 180.40625 139.300781 179.304688 139.695312 C 178.199219 140.089844 177.089844 140.457031 175.96875 140.796875 C 174.847656 141.136719 173.71875 141.449219 172.582031 141.734375 C 171.445312 142.019531 170.304688 142.277344 169.15625 142.507812 C 168.007812 142.734375 166.855469 142.9375 165.695312 143.109375 C 164.535156 143.28125 163.375 143.421875 162.210938 143.539062 C 161.042969 143.652344 159.875 143.738281 158.707031 143.796875 C 157.535156 143.855469 156.367188 143.882812 155.195312 143.882812 C 154.023438 143.882812 152.855469 143.855469 151.683594 143.796875 C 150.515625 143.738281 149.347656 143.652344 148.179688 143.539062 C 147.015625 143.421875 145.855469 143.28125 144.695312 143.109375 C 143.535156 142.9375 142.382812 142.734375 141.234375 142.507812 C 140.085938 142.277344 138.945312 142.019531 137.808594 141.734375 C 136.671875 141.449219 135.542969 141.136719 134.421875 140.796875 C 133.300781 140.457031 132.191406 140.089844 131.085938 139.695312 C 129.984375 139.300781 128.890625 138.878906 127.808594 138.429688 C 126.730469 137.980469 125.65625 137.503906 124.597656 137.003906 C 123.539062 136.5 122.496094 135.972656 121.460938 135.421875 C 120.429688 134.867188 119.410156 134.289062 118.40625 133.6875 C 117.402344 133.085938 116.414062 132.457031 115.4375 131.804688 C 114.464844 131.152344 113.507812 130.476562 112.566406 129.78125 C 111.625 129.082031 110.703125 128.359375 109.796875 127.613281 C 108.894531 126.871094 108.007812 126.105469 107.136719 125.316406 C 106.269531 124.53125 105.421875 123.722656 104.59375 122.890625 C 103.765625 122.0625 102.960938 121.214844 102.171875 120.34375 C 101.386719 119.476562 100.621094 118.585938 99.878906 117.679688 C 99.136719 116.773438 98.414062 115.847656 97.71875 114.90625 C 97.019531 113.964844 96.347656 113.007812 95.695312 112.03125 C 95.042969 111.054688 94.417969 110.066406 93.816406 109.058594 C 93.214844 108.050781 92.636719 107.03125 92.085938 105.996094 C 91.53125 104.964844 91.007812 103.917969 90.503906 102.855469 C 90.003906 101.796875 89.53125 100.722656 89.082031 99.640625 C 88.632812 98.554688 88.214844 97.460938 87.820312 96.359375 C 87.425781 95.253906 87.054688 94.140625 86.714844 93.015625 C 86.375 91.894531 86.0625 90.765625 85.78125 89.625 C 85.496094 88.488281 85.238281 87.34375 85.011719 86.195312 C 84.78125 85.042969 84.582031 83.890625 84.410156 82.726562 C 84.238281 81.566406 84.09375 80.40625 83.980469 79.238281 C 83.863281 78.070312 83.777344 76.898438 83.722656 75.730469 C 83.664062 74.558594 83.636719 73.386719 83.636719 72.210938 C 83.636719 71.039062 83.664062 69.867188 83.722656 68.695312 C 83.777344 67.523438 83.863281 66.355469 83.980469 65.1875 C 84.09375 64.019531 84.238281 62.855469 84.410156 61.695312 C 84.582031 60.535156 84.78125 59.378906 85.011719 58.230469 C 85.238281 57.078125 85.496094 55.933594 85.78125 54.796875 C 86.0625 53.660156 86.375 52.527344 86.714844 51.40625 C 87.054688 50.285156 87.425781 49.171875 87.820312 48.066406 C 88.214844 46.960938 88.632812 45.867188 89.082031 44.785156 C 89.53125 43.699219 90.003906 42.628906 90.503906 41.570312 C 91.007812 40.507812 91.53125 39.460938 92.085938 38.425781 C 92.636719 37.390625 93.214844 36.371094 93.816406 35.367188 C 94.417969 34.359375 95.042969 33.367188 95.695312 32.394531 C 96.347656 31.417969 97.019531 30.460938 97.71875 29.515625 C 98.414062 28.574219 99.136719 27.652344 99.878906 26.742188 C 100.621094 25.835938 101.386719 24.949219 102.171875 24.082031 C 102.960938 23.210938 103.765625 22.363281 104.59375 21.53125 C 105.421875 20.703125 106.269531 19.894531 107.136719 19.105469 C 108.007812 18.320312 108.894531 17.554688 109.796875 16.808594 C 110.703125 16.066406 111.625 15.34375 112.566406 14.644531 C 113.507812 13.945312 114.464844 13.269531 115.4375 12.617188 C 116.414062 11.96875 117.402344 11.339844 118.40625 10.738281 C 119.410156 10.132812 120.429688 9.554688 121.460938 9.003906 C 122.496094 8.449219 123.539062 7.921875 124.597656 7.421875 C 125.65625 6.921875 126.730469 6.445312 127.808594 5.996094 C 128.890625 5.546875 129.984375 5.125 131.085938 4.730469 C 132.191406 4.335938 133.300781 3.96875 134.421875 3.625 C 135.542969 3.285156 136.671875 2.972656 137.808594 2.6875 C 138.945312 2.402344 140.085938 2.144531 141.234375 1.917969 C 142.382812 1.6875 143.535156 1.488281 144.695312 1.316406 C 145.855469 1.144531 147.015625 1 148.179688 0.886719 C 149.347656 0.769531 150.515625 0.683594 151.683594 0.625 C 152.855469 0.570312 154.023438 0.539062 155.195312 0.539062 C 156.367188 0.539062 157.535156 0.570312 158.707031 0.625 C 159.875 0.683594 161.042969 0.769531 162.210938 0.886719 C 163.375 1 164.535156 1.144531 165.695312 1.316406 C 166.855469 1.488281 168.007812 1.6875 169.15625 1.917969 C 170.304688 2.144531 171.445312 2.402344 172.582031 2.6875 C 173.71875 2.972656 174.847656 3.285156 175.96875 3.625 C 177.089844 3.96875 178.199219 4.335938 179.304688 4.730469 C 180.40625 5.125 181.5 5.546875 182.582031 5.996094 C 183.664062 6.445312 184.734375 6.921875 185.792969 7.421875 C 186.851562 7.921875 187.894531 8.449219 188.929688 9.003906 C 189.960938 9.554688 190.980469 10.132812 191.984375 10.738281 C 192.988281 11.339844 193.976562 11.96875 194.953125 12.617188 C 195.925781 13.269531 196.882812 13.945312 197.824219 14.644531 C 198.765625 15.34375 199.6875 16.066406 200.59375 16.808594 C 201.496094 17.554688 202.382812 18.320312 203.253906 19.105469 C 204.121094 19.894531 204.96875 20.703125 205.796875 21.53125 C 206.625 22.363281 207.429688 23.210938 208.21875 24.082031 C 209.003906 24.949219 209.769531 25.835938 210.511719 26.742188 C 211.253906 27.652344 211.976562 28.574219 212.671875 29.515625 C 213.371094 30.460938 214.042969 31.417969 214.695312 32.394531 C 215.347656 33.367188 215.972656 34.359375 216.574219 35.367188 C 217.175781 36.371094 217.753906 37.390625 218.304688 38.425781 C 218.859375 39.460938 219.382812 40.507812 219.886719 41.570312 C 220.386719 42.628906 220.859375 43.699219 221.308594 44.785156 C 221.757812 45.867188 222.179688 46.960938 222.574219 48.066406 C 222.96875 49.171875 223.335938 50.285156 223.675781 51.40625 C 224.015625 52.527344 224.328125 53.660156 224.609375 54.796875 C 224.894531 55.933594 225.152344 57.078125 225.378906 58.230469 C 225.609375 59.378906 225.808594 60.535156 225.980469 61.695312 C 226.152344 62.855469 226.296875 64.019531 226.410156 65.1875 C 226.527344 66.355469 226.613281 67.523438 226.667969 68.695312 C 226.726562 69.867188 226.753906 71.039062 226.753906 72.210938 Z M 226.753906 72.210938 " fill-opacity="1" fill-rule="nonzero"/></g><path fill="#eceff1" d="M 116.164062 78.726562 C 115.734375 78.726562 115.3125 78.6875 114.894531 78.601562 C 114.472656 78.519531 114.066406 78.394531 113.671875 78.230469 C 113.277344 78.066406 112.902344 77.867188 112.546875 77.628906 C 112.191406 77.390625 111.863281 77.121094 111.5625 76.820312 C 111.261719 76.515625 110.992188 76.1875 110.753906 75.832031 C 110.515625 75.476562 110.316406 75.101562 110.152344 74.707031 C 109.988281 74.308594 109.867188 73.902344 109.78125 73.484375 C 109.699219 73.0625 109.65625 72.640625 109.65625 72.210938 C 109.65625 70.71875 109.730469 69.226562 109.875 67.742188 C 110.023438 66.253906 110.242188 64.777344 110.53125 63.3125 C 110.824219 61.847656 111.183594 60.402344 111.617188 58.972656 C 112.050781 57.542969 112.554688 56.136719 113.125 54.757812 C 113.695312 53.378906 114.332031 52.03125 115.035156 50.710938 C 115.738281 49.394531 116.503906 48.113281 117.332031 46.871094 C 118.160156 45.628906 119.046875 44.433594 119.992188 43.277344 C 120.941406 42.125 121.941406 41.019531 122.996094 39.960938 C 124.050781 38.90625 125.152344 37.902344 126.304688 36.957031 C 127.460938 36.007812 128.65625 35.117188 129.894531 34.289062 C 131.136719 33.460938 132.414062 32.691406 133.730469 31.988281 C 135.042969 31.285156 136.390625 30.644531 137.769531 30.074219 C 139.148438 29.503906 140.550781 29 141.976562 28.566406 C 143.402344 28.132812 144.847656 27.769531 146.3125 27.480469 C 147.773438 27.1875 149.246094 26.96875 150.730469 26.824219 C 152.214844 26.675781 153.703125 26.601562 155.195312 26.601562 C 155.621094 26.601562 156.046875 26.644531 156.464844 26.726562 C 156.882812 26.8125 157.289062 26.933594 157.683594 27.097656 C 158.078125 27.261719 158.453125 27.464844 158.808594 27.699219 C 159.164062 27.9375 159.492188 28.207031 159.796875 28.511719 C 160.097656 28.8125 160.367188 29.144531 160.605469 29.5 C 160.839844 29.855469 161.042969 30.230469 161.207031 30.625 C 161.367188 31.019531 161.492188 31.425781 161.574219 31.847656 C 161.660156 32.265625 161.699219 32.691406 161.699219 33.117188 C 161.699219 33.546875 161.660156 33.96875 161.574219 34.390625 C 161.492188 34.808594 161.367188 35.214844 161.207031 35.613281 C 161.042969 36.007812 160.839844 36.382812 160.605469 36.738281 C 160.367188 37.09375 160.097656 37.421875 159.796875 37.726562 C 159.492188 38.027344 159.164062 38.296875 158.808594 38.535156 C 158.453125 38.773438 158.078125 38.972656 157.683594 39.136719 C 157.289062 39.300781 156.882812 39.425781 156.464844 39.507812 C 156.046875 39.59375 155.621094 39.632812 155.195312 39.632812 C 154.128906 39.632812 153.066406 39.6875 152.007812 39.789062 C 150.945312 39.894531 149.894531 40.050781 148.851562 40.261719 C 147.804688 40.46875 146.773438 40.726562 145.753906 41.035156 C 144.734375 41.347656 143.730469 41.707031 142.746094 42.113281 C 141.761719 42.523438 140.800781 42.976562 139.863281 43.480469 C 138.921875 43.984375 138.011719 44.53125 137.125 45.125 C 136.238281 45.71875 135.382812 46.351562 134.558594 47.027344 C 133.738281 47.707031 132.949219 48.421875 132.195312 49.175781 C 131.441406 49.929688 130.726562 50.71875 130.050781 51.542969 C 129.375 52.371094 128.742188 53.226562 128.148438 54.113281 C 127.558594 55 127.011719 55.914062 126.507812 56.855469 C 126.007812 57.796875 125.550781 58.757812 125.144531 59.746094 C 124.738281 60.730469 124.378906 61.734375 124.070312 62.753906 C 123.757812 63.777344 123.5 64.808594 123.292969 65.855469 C 123.085938 66.902344 122.929688 67.957031 122.824219 69.019531 C 122.71875 70.082031 122.667969 71.144531 122.667969 72.210938 C 122.667969 72.640625 122.625 73.0625 122.542969 73.484375 C 122.460938 73.902344 122.335938 74.308594 122.171875 74.707031 C 122.007812 75.101562 121.808594 75.476562 121.570312 75.832031 C 121.335938 76.1875 121.066406 76.515625 120.761719 76.820312 C 120.460938 77.121094 120.132812 77.390625 119.777344 77.628906 C 119.421875 77.867188 119.046875 78.066406 118.652344 78.230469 C 118.257812 78.394531 117.851562 78.519531 117.433594 78.601562 C 117.011719 78.6875 116.589844 78.726562 116.164062 78.726562 Z M 116.164062 78.726562 " fill-opacity="1" fill-rule="nonzero"/></svg>