<svg xmlns="http://www.w3.org/2000/svg" xmlns:xlink="http://www.w3.org/1999/xlink" zoomAndPan="magnify" preserveAspectRatio="xMidYMid meet" version="1.0" viewBox="58 222.04 194.25 194.25"><defs><clipPath id="9c631fb428"><path d="M 57.996094 222.039062 L 252.246094 222.039062 L 252.246094 416.289062 L 57.996094 416.289062 Z M 57.996094 222.039062 " clip-rule="nonzero"/></clipPath></defs><g clip-path="url(#9c631fb428)"><path fill="#312f2f" d="M 223.792969 250.488281 C 205.449219 232.140625 181.0625 222.039062 155.117188 222.039062 C 129.175781 222.039062 104.785156 232.140625 86.441406 250.488281 C 68.097656 268.832031 57.996094 293.21875 57.996094 319.164062 C 57.996094 345.105469 68.097656 369.496094 86.441406 387.839844 C 104.785156 406.183594 129.175781 416.285156 155.117188 416.285156 C 181.0625 416.285156 205.449219 406.183594 223.792969 387.839844 C 242.140625 369.496094 252.242188 345.105469 252.242188 319.164062 C 252.242188 293.21875 242.140625 268.832031 223.792969 250.488281 Z M 90.847656 254.894531 C 108.015625 237.726562 130.839844 228.273438 155.117188 228.273438 C 179.394531 228.273438 202.222656 237.726562 219.386719 254.894531 C 236.554688 272.058594 246.007812 294.886719 246.007812 319.164062 C 246.007812 339.34375 239.46875 358.519531 227.402344 374.277344 C 217.800781 360.851562 202.464844 352.917969 185.8125 352.917969 L 124.421875 352.917969 C 107.769531 352.917969 92.4375 360.851562 82.832031 374.277344 C 70.765625 358.519531 64.226562 339.34375 64.226562 319.164062 C 64.226562 294.886719 73.683594 272.058594 90.847656 254.894531 Z M 155.117188 347.796875 C 180.074219 347.796875 200.375 327.496094 200.375 302.542969 C 200.375 277.589844 180.074219 257.289062 155.117188 257.289062 C 130.164062 257.289062 109.863281 277.589844 109.863281 302.542969 C 109.863281 327.496094 130.164062 347.796875 155.117188 347.796875 Z M 155.117188 347.796875 " fill-opacity="1" fill-rule="nonzero"/></g></svg>