<svg xmlns="http://www.w3.org/2000/svg" xmlns:xlink="http://www.w3.org/1999/xlink" zoomAndPan="magnify" preserveAspectRatio="xMidYMid meet" version="1.0" viewBox="93.15 255.36 124.5 162"><defs><clipPath id="a3bba8eeee"><path d="M 93.148438 255.363281 L 217.648438 255.363281 L 217.648438 417.363281 L 93.148438 417.363281 Z M 93.148438 255.363281 " clip-rule="nonzero"/></clipPath></defs><g clip-path="url(#a3bba8eeee)"><path fill="#f8f8f8" d="M 155.386719 417.066406 L 151.761719 413.234375 C 149.371094 410.699219 93.152344 350.828125 93.152344 317.769531 C 93.152344 283.613281 121.070312 255.824219 155.386719 255.824219 C 189.703125 255.824219 217.617188 283.613281 217.617188 317.769531 C 217.617188 350.828125 161.402344 410.699219 159.007812 413.234375 Z M 155.386719 265.726562 C 126.554688 265.726562 103.101562 289.074219 103.101562 317.769531 C 103.101562 340.28125 137.984375 383.363281 155.386719 402.53125 C 172.785156 383.359375 207.671875 340.265625 207.671875 317.769531 C 207.671875 289.074219 184.214844 265.726562 155.386719 265.726562 Z M 155.386719 265.726562 " fill-opacity="1" fill-rule="nonzero"/></g><path fill="#f8f8f8" d="M 125.242188 314.570312 L 184.699219 314.570312 L 184.699219 324.46875 L 125.242188 324.46875 Z M 125.242188 314.570312 " fill-opacity="1" fill-rule="nonzero"/></svg>