<svg xmlns="http://www.w3.org/2000/svg" xmlns:xlink="http://www.w3.org/1999/xlink" zoomAndPan="magnify" preserveAspectRatio="xMidYMid meet" version="1.0" viewBox="114.4 296.05 84.28 83.92"><defs><clipPath id="a818cec260"><path d="M 164 346 L 198.679688 346 L 198.679688 379.972656 L 164 379.972656 Z M 164 346 " clip-rule="nonzero"/></clipPath></defs><path fill="#000000" d="M 147.613281 362.445312 C 146.933594 362.445312 146.253906 362.421875 145.574219 362.382812 C 144.898438 362.339844 144.222656 362.277344 143.546875 362.195312 C 142.875 362.113281 142.203125 362.007812 141.535156 361.886719 C 140.867188 361.761719 140.203125 361.617188 139.542969 361.453125 C 138.882812 361.289062 138.230469 361.101562 137.582031 360.898438 C 136.9375 360.691406 136.296875 360.46875 135.660156 360.222656 C 135.027344 359.980469 134.402344 359.714844 133.785156 359.433594 C 133.164062 359.152344 132.558594 358.847656 131.957031 358.53125 C 131.359375 358.210938 130.769531 357.871094 130.191406 357.515625 C 129.613281 357.160156 129.046875 356.785156 128.492188 356.394531 C 127.933594 356.003906 127.390625 355.59375 126.859375 355.171875 C 126.332031 354.746094 125.8125 354.304688 125.308594 353.851562 C 124.808594 353.394531 124.316406 352.921875 123.84375 352.4375 C 123.367188 351.949219 122.910156 351.449219 122.464844 350.9375 C 122.023438 350.421875 121.59375 349.894531 121.183594 349.355469 C 120.769531 348.8125 120.375 348.261719 120 347.695312 C 119.621094 347.132812 119.261719 346.554688 118.917969 345.96875 C 118.578125 345.382812 118.253906 344.785156 117.949219 344.179688 C 117.640625 343.570312 117.355469 342.957031 117.089844 342.332031 C 116.820312 341.707031 116.570312 341.074219 116.34375 340.433594 C 116.113281 339.796875 115.90625 339.148438 115.714844 338.496094 C 115.527344 337.84375 115.355469 337.1875 115.207031 336.523438 C 115.058594 335.859375 114.929688 335.195312 114.824219 334.523438 C 114.714844 333.851562 114.628906 333.179688 114.5625 332.503906 C 114.496094 331.828125 114.449219 331.148438 114.425781 330.472656 C 114.398438 329.792969 114.394531 329.113281 114.410156 328.433594 C 114.429688 327.753906 114.464844 327.078125 114.523438 326.398438 C 114.582031 325.722656 114.660156 325.046875 114.761719 324.375 C 114.859375 323.703125 114.980469 323.035156 115.121094 322.371094 C 115.261719 321.707031 115.421875 321.046875 115.605469 320.394531 C 115.785156 319.738281 115.988281 319.089844 116.207031 318.445312 C 116.429688 317.804688 116.667969 317.167969 116.929688 316.542969 C 117.191406 315.914062 117.46875 315.296875 117.765625 314.683594 C 118.066406 314.074219 118.382812 313.472656 118.714844 312.882812 C 119.050781 312.292969 119.402344 311.710938 119.773438 311.140625 C 120.144531 310.574219 120.53125 310.015625 120.9375 309.46875 C 121.34375 308.925781 121.765625 308.390625 122.203125 307.871094 C 122.640625 307.351562 123.09375 306.847656 123.558594 306.355469 C 124.027344 305.863281 124.511719 305.386719 125.011719 304.921875 C 125.507812 304.460938 126.019531 304.015625 126.542969 303.582031 C 127.070312 303.152344 127.609375 302.738281 128.160156 302.339844 C 128.710938 301.941406 129.273438 301.5625 129.847656 301.199219 C 130.421875 300.835938 131.003906 300.488281 131.601562 300.164062 C 132.195312 299.835938 132.800781 299.527344 133.414062 299.234375 C 134.027344 298.945312 134.652344 298.675781 135.28125 298.421875 C 135.914062 298.171875 136.550781 297.9375 137.195312 297.726562 C 137.839844 297.511719 138.492188 297.320312 139.148438 297.148438 C 139.804688 296.972656 140.46875 296.820312 141.132812 296.6875 C 141.800781 296.558594 142.46875 296.445312 143.144531 296.355469 C 143.816406 296.261719 144.492188 296.191406 145.167969 296.144531 C 145.847656 296.09375 146.527344 296.0625 147.203125 296.054688 C 147.882812 296.046875 148.5625 296.0625 149.242188 296.09375 C 149.921875 296.128906 150.597656 296.183594 151.273438 296.257812 C 151.949219 296.332031 152.621094 296.429688 153.289062 296.546875 C 153.957031 296.664062 154.625 296.800781 155.285156 296.957031 C 155.945312 297.113281 156.601562 297.292969 157.25 297.488281 C 157.902344 297.6875 158.542969 297.902344 159.179688 298.140625 C 159.816406 298.378906 160.445312 298.632812 161.066406 298.910156 C 161.6875 299.1875 162.300781 299.480469 162.902344 299.792969 C 163.503906 300.105469 164.097656 300.4375 164.679688 300.789062 C 165.261719 301.136719 165.835938 301.503906 166.394531 301.890625 C 166.953125 302.273438 167.5 302.675781 168.035156 303.09375 C 168.574219 303.511719 169.09375 303.945312 169.601562 304.398438 C 170.113281 304.847656 170.605469 305.3125 171.085938 305.792969 C 172.242188 306.949219 173.304688 308.179688 174.277344 309.492188 C 175.25 310.800781 176.121094 312.175781 176.894531 313.617188 C 177.664062 315.054688 178.324219 316.542969 178.875 318.078125 C 179.425781 319.617188 179.859375 321.1875 180.179688 322.785156 C 180.496094 324.386719 180.695312 326.003906 180.777344 327.632812 C 180.855469 329.265625 180.816406 330.890625 180.65625 332.515625 C 180.496094 334.140625 180.21875 335.746094 179.824219 337.328125 C 179.425781 338.914062 178.914062 340.460938 178.289062 341.96875 C 177.664062 343.476562 176.933594 344.929688 176.09375 346.328125 C 175.253906 347.730469 174.316406 349.058594 173.28125 350.320312 C 172.242188 351.582031 171.121094 352.761719 169.910156 353.859375 C 168.699219 354.953125 167.417969 355.957031 166.058594 356.863281 C 164.703125 357.769531 163.285156 358.570312 161.808594 359.265625 C 160.332031 359.964844 158.8125 360.550781 157.25 361.023438 C 155.6875 361.496094 154.097656 361.851562 152.484375 362.089844 C 150.867188 362.328125 149.246094 362.445312 147.613281 362.445312 Z M 147.613281 303.367188 C 146.621094 303.367188 145.632812 303.421875 144.648438 303.53125 C 143.667969 303.640625 142.691406 303.808594 141.726562 304.03125 C 140.761719 304.253906 139.8125 304.53125 138.878906 304.863281 C 137.945312 305.195312 137.035156 305.578125 136.144531 306.015625 C 135.257812 306.453125 134.394531 306.9375 133.5625 307.472656 C 132.726562 308.007812 131.925781 308.589844 131.160156 309.214844 C 130.394531 309.84375 129.664062 310.511719 128.976562 311.222656 C 128.285156 311.933594 127.636719 312.679688 127.035156 313.464844 C 126.429688 314.25 125.871094 315.066406 125.363281 315.914062 C 124.851562 316.765625 124.390625 317.640625 123.980469 318.539062 C 123.570312 319.441406 123.210938 320.363281 122.910156 321.308594 C 122.605469 322.25 122.355469 323.207031 122.160156 324.175781 C 121.964844 325.148438 121.828125 326.128906 121.746094 327.113281 C 121.660156 328.101562 121.636719 329.089844 121.667969 330.082031 C 121.699219 331.070312 121.785156 332.054688 121.929688 333.035156 C 122.074219 334.015625 122.273438 334.984375 122.53125 335.941406 C 122.785156 336.898438 123.09375 337.835938 123.457031 338.757812 C 123.820312 339.679688 124.234375 340.578125 124.699219 341.453125 C 125.164062 342.324219 125.679688 343.171875 126.242188 343.984375 C 126.804688 344.800781 127.414062 345.582031 128.066406 346.324219 C 128.71875 347.070312 129.410156 347.777344 130.144531 348.441406 C 130.878906 349.109375 131.648438 349.730469 132.453125 350.308594 C 133.257812 350.886719 134.089844 351.414062 134.957031 351.894531 C 135.820312 352.378906 136.710938 352.808594 137.625 353.1875 C 138.542969 353.566406 139.476562 353.894531 140.425781 354.167969 C 141.378906 354.4375 142.34375 354.65625 143.320312 354.816406 C 144.296875 354.980469 145.28125 355.085938 146.269531 355.132812 C 147.261719 355.183594 148.25 355.175781 149.238281 355.113281 C 150.226562 355.046875 151.207031 354.925781 152.183594 354.75 C 153.15625 354.574219 154.117188 354.339844 155.066406 354.054688 C 156.011719 353.765625 156.941406 353.425781 157.851562 353.03125 C 158.757812 352.636719 159.644531 352.195312 160.5 351.699219 C 161.359375 351.203125 162.183594 350.660156 162.980469 350.070312 C 163.777344 349.480469 164.535156 348.847656 165.257812 348.171875 C 165.980469 347.492188 166.664062 346.777344 167.304688 346.023438 C 167.945312 345.265625 168.539062 344.476562 169.089844 343.652344 C 169.640625 342.828125 170.140625 341.976562 170.59375 341.097656 C 171.046875 340.214844 171.445312 339.3125 171.796875 338.382812 C 172.144531 337.457031 172.4375 336.511719 172.679688 335.550781 C 172.917969 334.589844 173.105469 333.621094 173.234375 332.636719 C 173.363281 331.65625 173.433594 330.667969 173.449219 329.679688 C 173.464844 328.6875 173.425781 327.699219 173.328125 326.714844 C 173.230469 325.730469 173.078125 324.753906 172.867188 323.785156 C 172.65625 322.816406 172.394531 321.863281 172.074219 320.925781 C 171.753906 319.988281 171.382812 319.074219 170.960938 318.175781 C 170.535156 317.28125 170.0625 316.414062 169.539062 315.574219 C 169.015625 314.734375 168.445312 313.925781 167.828125 313.148438 C 167.210938 312.375 166.550781 311.636719 165.851562 310.9375 C 164.652344 309.738281 163.351562 308.667969 161.941406 307.726562 C 160.535156 306.785156 159.046875 305.988281 157.484375 305.339844 C 155.917969 304.691406 154.304688 304.199219 152.644531 303.867188 C 150.984375 303.535156 149.304688 303.371094 147.613281 303.367188 Z M 147.613281 303.367188 " fill-opacity="1" fill-rule="nonzero"/><g clip-path="url(#a818cec260)"><path fill="#312f2f" d="M 194.667969 379.972656 C 193.664062 379.96875 192.804688 379.609375 192.097656 378.894531 L 165.925781 352.742188 C 165.582031 352.398438 165.316406 352.003906 165.132812 351.558594 C 164.949219 351.109375 164.855469 350.644531 164.855469 350.160156 C 164.855469 349.675781 164.949219 349.210938 165.132812 348.761719 C 165.316406 348.316406 165.582031 347.921875 165.925781 347.578125 C 166.265625 347.238281 166.660156 346.972656 167.109375 346.789062 C 167.554688 346.601562 168.019531 346.511719 168.503906 346.511719 C 168.988281 346.511719 169.453125 346.601562 169.902344 346.789062 C 170.347656 346.972656 170.742188 347.238281 171.085938 347.578125 L 197.242188 373.753906 C 197.492188 374.007812 197.707031 374.292969 197.875 374.609375 C 198.042969 374.929688 198.164062 375.261719 198.230469 375.617188 C 198.300781 375.96875 198.320312 376.324219 198.285156 376.683594 C 198.25 377.039062 198.160156 377.386719 198.023438 377.71875 C 197.886719 378.050781 197.703125 378.355469 197.476562 378.632812 C 197.25 378.910156 196.984375 379.152344 196.6875 379.351562 C 196.390625 379.550781 196.066406 379.707031 195.722656 379.8125 C 195.378906 379.917969 195.027344 379.96875 194.667969 379.972656 Z M 194.667969 379.972656 " fill-opacity="1" fill-rule="nonzero"/></g></svg>