<svg xmlns="http://www.w3.org/2000/svg" xmlns:xlink="http://www.w3.org/1999/xlink" zoomAndPan="magnify" preserveAspectRatio="xMidYMid meet" version="1.0" viewBox="55.13 268 200.25 200.25"><defs><clipPath id="f71ec3370c"><path d="M 55.132812 267.996094 L 255.382812 267.996094 L 255.382812 468.246094 L 55.132812 468.246094 Z M 55.132812 267.996094 " clip-rule="nonzero"/></clipPath></defs><g clip-path="url(#f71ec3370c)"><path fill="#312f2f" d="M 249.410156 339.941406 L 229.335938 337.816406 C 229.246094 337.601562 229.15625 337.386719 229.066406 337.171875 L 241.761719 321.472656 C 243.90625 318.820312 243.707031 314.96875 241.289062 312.558594 L 210.824219 282.089844 C 208.402344 279.664062 204.558594 279.46875 201.90625 281.621094 L 186.207031 294.3125 C 185.992188 294.21875 185.78125 294.136719 185.566406 294.042969 L 183.441406 273.96875 C 183.078125 270.570312 180.21875 267.996094 176.800781 267.996094 L 133.714844 267.996094 C 130.300781 267.996094 127.4375 270.570312 127.074219 273.96875 L 124.949219 294.042969 C 124.734375 294.128906 124.523438 294.21875 124.308594 294.3125 L 108.613281 281.621094 C 105.957031 279.46875 102.113281 279.664062 99.695312 282.089844 L 69.226562 312.558594 C 66.8125 314.96875 66.609375 318.820312 68.753906 321.472656 L 81.449219 337.171875 C 81.359375 337.386719 81.269531 337.601562 81.183594 337.816406 L 61.109375 339.941406 C 57.710938 340.300781 55.132812 343.160156 55.132812 346.578125 L 55.132812 389.664062 C 55.132812 393.082031 57.710938 395.941406 61.109375 396.300781 L 81.183594 398.425781 C 81.269531 398.640625 81.359375 398.855469 81.449219 399.070312 L 68.753906 414.769531 C 66.609375 417.421875 66.8125 421.273438 69.226562 423.683594 L 99.695312 454.152344 C 102.113281 456.570312 105.957031 456.765625 108.613281 454.621094 L 124.308594 441.929688 C 124.523438 442.023438 124.734375 442.113281 124.949219 442.199219 L 127.074219 462.273438 C 127.4375 465.671875 130.300781 468.246094 133.714844 468.246094 L 176.800781 468.246094 C 180.21875 468.246094 183.078125 465.671875 183.441406 462.273438 L 185.566406 442.199219 C 185.78125 442.105469 185.992188 442.023438 186.207031 441.929688 L 201.90625 454.621094 C 204.558594 456.765625 208.402344 456.570312 210.824219 454.152344 L 241.289062 423.683594 C 243.707031 421.273438 243.90625 417.421875 241.761719 414.769531 L 229.066406 399.070312 C 229.15625 398.855469 229.246094 398.640625 229.335938 398.425781 L 249.410156 396.300781 C 252.804688 395.941406 255.382812 393.082031 255.382812 389.664062 L 255.382812 346.578125 C 255.382812 343.160156 252.804688 340.300781 249.410156 339.941406 Z M 242.035156 383.660156 L 223.851562 385.585938 C 221.28125 385.851562 219.101562 387.585938 218.25 390.023438 C 217.417969 392.421875 216.414062 394.820312 215.285156 397.15625 C 214.15625 399.480469 214.476562 402.253906 216.097656 404.265625 L 227.605469 418.488281 L 205.628906 440.464844 L 191.402344 428.964844 C 189.390625 427.328125 186.621094 427.023438 184.296875 428.152344 C 181.925781 429.296875 179.53125 430.289062 177.175781 431.105469 C 174.734375 431.949219 172.996094 434.132812 172.722656 436.710938 L 170.796875 454.894531 L 139.722656 454.894531 L 137.796875 436.710938 C 137.523438 434.132812 135.785156 431.949219 133.339844 431.105469 C 130.972656 430.289062 128.582031 429.292969 126.226562 428.152344 C 123.902344 427.023438 121.128906 427.328125 119.113281 428.964844 L 104.886719 440.464844 L 82.914062 418.488281 L 94.417969 404.265625 C 96.039062 402.253906 96.359375 399.480469 95.230469 397.15625 C 94.101562 394.820312 93.101562 392.421875 92.265625 390.023438 C 91.414062 387.585938 89.234375 385.851562 86.664062 385.585938 L 68.484375 383.660156 L 68.484375 352.582031 L 86.664062 350.65625 C 89.234375 350.390625 91.414062 348.65625 92.265625 346.21875 C 93.101562 343.820312 94.101562 341.421875 95.234375 339.085938 C 96.359375 336.761719 96.039062 333.988281 94.417969 331.976562 L 82.914062 317.753906 L 104.886719 295.777344 L 119.113281 307.277344 C 121.128906 308.914062 123.902344 309.226562 126.226562 308.09375 C 128.582031 306.949219 130.972656 305.953125 133.339844 305.140625 C 135.785156 304.292969 137.523438 302.109375 137.796875 299.53125 L 139.722656 281.347656 L 170.796875 281.347656 L 172.722656 299.53125 C 172.996094 302.109375 174.734375 304.292969 177.175781 305.140625 C 179.53125 305.953125 181.925781 306.945312 184.296875 308.09375 C 186.621094 309.226562 189.390625 308.914062 191.402344 307.277344 L 205.628906 295.777344 L 227.605469 317.753906 L 216.097656 331.976562 C 214.476562 333.988281 214.15625 336.761719 215.285156 339.085938 C 216.414062 341.421875 217.417969 343.820312 218.25 346.21875 C 219.101562 348.65625 221.28125 350.390625 223.851562 350.65625 L 242.035156 352.582031 Z M 242.035156 383.660156 " fill-opacity="1" fill-rule="nonzero"/></g><path fill="#312f2f" d="M 155.257812 313.585938 C 125.1875 313.585938 100.726562 338.050781 100.726562 368.121094 C 100.726562 398.191406 125.1875 422.65625 155.257812 422.65625 C 185.328125 422.65625 209.789062 398.191406 209.789062 368.121094 C 209.789062 338.050781 185.328125 313.585938 155.257812 313.585938 Z M 155.257812 409.304688 C 132.550781 409.304688 114.078125 390.832031 114.078125 368.121094 C 114.078125 345.410156 132.550781 326.9375 155.257812 326.9375 C 177.964844 326.9375 196.441406 345.410156 196.441406 368.121094 C 196.441406 390.832031 177.964844 409.304688 155.257812 409.304688 Z M 155.257812 409.304688 " fill-opacity="1" fill-rule="nonzero"/></svg>