<svg xmlns="http://www.w3.org/2000/svg" xmlns:xlink="http://www.w3.org/1999/xlink" zoomAndPan="magnify" preserveAspectRatio="xMidYMid meet" version="1.0" viewBox="16 231.8 234.83 105.03"><defs><g/><clipPath id="5838c2325b"><path d="M 35 231.804688 L 84 231.804688 L 84 302 L 35 302 Z M 35 231.804688 " clip-rule="nonzero"/></clipPath><clipPath id="38a0654ea3"><path d="M 16 276 L 103 276 L 103 336.804688 L 16 336.804688 Z M 16 276 " clip-rule="nonzero"/></clipPath></defs><g clip-path="url(#5838c2325b)"><path fill="#c43c1e" d="M 59.421875 231.824219 C 46.039062 231.824219 35.195312 242.675781 35.195312 256.066406 C 35.195312 265.523438 47.28125 286.777344 54.382812 298.441406 C 56.679688 302.21875 62.160156 302.21875 64.460938 298.441406 C 71.558594 286.777344 83.648438 265.523438 83.648438 256.066406 C 83.648438 242.675781 72.800781 231.824219 59.421875 231.824219 Z M 59.421875 271.050781 C 51.449219 271.050781 44.988281 264.585938 44.988281 256.609375 C 44.988281 248.632812 51.449219 242.164062 59.421875 242.164062 C 67.390625 242.164062 73.855469 248.632812 73.855469 256.609375 C 73.855469 264.585938 67.390625 271.050781 59.421875 271.050781 Z M 59.421875 271.050781 " fill-opacity="1" fill-rule="nonzero"/></g><path fill="#c43c1e" d="M 67.375 256.609375 C 67.375 257.132812 67.324219 257.648438 67.222656 258.164062 C 67.121094 258.675781 66.96875 259.171875 66.769531 259.65625 C 66.570312 260.136719 66.324219 260.597656 66.035156 261.03125 C 65.746094 261.464844 65.414062 261.867188 65.046875 262.238281 C 64.675781 262.609375 64.273438 262.9375 63.839844 263.226562 C 63.40625 263.519531 62.949219 263.761719 62.464844 263.964844 C 61.980469 264.164062 61.484375 264.316406 60.972656 264.417969 C 60.460938 264.519531 59.941406 264.570312 59.421875 264.570312 C 58.898438 264.570312 58.382812 264.519531 57.867188 264.417969 C 57.355469 264.316406 56.859375 264.164062 56.375 263.964844 C 55.894531 263.761719 55.433594 263.519531 55 263.226562 C 54.566406 262.9375 54.164062 262.609375 53.796875 262.238281 C 53.425781 261.867188 53.097656 261.464844 52.804688 261.03125 C 52.515625 260.597656 52.269531 260.136719 52.070312 259.65625 C 51.871094 259.171875 51.71875 258.675781 51.617188 258.164062 C 51.515625 257.648438 51.464844 257.132812 51.464844 256.609375 C 51.464844 256.085938 51.515625 255.570312 51.617188 255.054688 C 51.71875 254.542969 51.871094 254.046875 52.070312 253.5625 C 52.269531 253.078125 52.515625 252.621094 52.804688 252.1875 C 53.097656 251.753906 53.425781 251.351562 53.796875 250.980469 C 54.164062 250.609375 54.566406 250.28125 55 249.992188 C 55.433594 249.699219 55.894531 249.453125 56.375 249.253906 C 56.859375 249.054688 57.355469 248.902344 57.867188 248.800781 C 58.382812 248.699219 58.898438 248.648438 59.421875 248.648438 C 59.941406 248.648438 60.460938 248.699219 60.972656 248.800781 C 61.484375 248.902344 61.980469 249.054688 62.464844 249.253906 C 62.949219 249.453125 63.40625 249.699219 63.839844 249.992188 C 64.273438 250.28125 64.675781 250.609375 65.046875 250.980469 C 65.414062 251.351562 65.746094 251.753906 66.035156 252.1875 C 66.324219 252.621094 66.570312 253.078125 66.769531 253.5625 C 66.96875 254.046875 67.121094 254.542969 67.222656 255.054688 C 67.324219 255.570312 67.375 256.085938 67.375 256.609375 Z M 67.375 256.609375 " fill-opacity="1" fill-rule="nonzero"/><g clip-path="url(#38a0654ea3)"><path fill="#c43c1e" d="M 102.507812 328.289062 L 95.269531 282.8125 C 94.699219 279.226562 91.613281 276.59375 87.988281 276.59375 L 79.964844 276.59375 C 79.074219 278.464844 78.128906 280.359375 77.152344 282.253906 L 82.617188 282.253906 C 85.5625 282.253906 88.074219 284.390625 88.535156 287.300781 L 90.257812 298.128906 L 87.59375 298.128906 C 81.683594 298.128906 76.050781 296.335938 71.300781 293.023438 C 70.367188 294.664062 69.445312 296.257812 68.550781 297.78125 C 69.066406 298.132812 69.589844 298.464844 70.117188 298.785156 L 58.207031 312.628906 L 56.789062 310.445312 C 54.152344 306.398438 49.6875 303.976562 44.859375 303.976562 L 37.785156 303.976562 L 48.785156 295.1875 C 47.886719 293.632812 46.96875 292.019531 46.046875 290.371094 L 29.023438 303.976562 L 27.660156 303.976562 L 30.3125 287.300781 C 30.777344 284.390625 33.28125 282.253906 36.226562 282.253906 L 41.691406 282.253906 C 40.71875 280.359375 39.773438 278.464844 38.878906 276.59375 L 30.859375 276.59375 C 27.230469 276.59375 24.144531 279.230469 23.574219 282.8125 L 16.339844 328.289062 C 15.628906 332.773438 19.085938 336.832031 23.625 336.832031 L 95.222656 336.832031 C 99.753906 336.832031 103.21875 332.773438 102.507812 328.289062 Z M 75.1875 301.273438 C 79.085938 302.800781 83.28125 303.597656 87.589844 303.597656 L 91.125 303.597656 L 92.921875 314.890625 L 63.46875 314.890625 Z M 30.347656 331.171875 C 26.664062 331.171875 23.855469 327.875 24.433594 324.234375 L 26.785156 309.445312 L 44.855469 309.445312 C 47.832031 309.445312 50.582031 310.9375 52.207031 313.429688 L 63.761719 331.171875 Z M 88.492188 331.171875 L 70.28125 331.171875 L 63.242188 320.363281 L 93.789062 320.363281 L 94.40625 324.234375 C 94.988281 327.875 92.179688 331.171875 88.492188 331.171875 Z M 88.492188 331.171875 " fill-opacity="1" fill-rule="nonzero"/></g><g fill="#c43c1e" fill-opacity="1"><g transform="translate(82.168107, 272.846728)"><g><path d="M 22.671875 -26.25 C 23.523438 -26.25 24.226562 -25.960938 24.78125 -25.390625 C 25.34375 -24.828125 25.625 -24.117188 25.625 -23.265625 L 25.625 -10.796875 C 25.625 -7.265625 24.648438 -4.5 22.703125 -2.5 C 20.753906 -0.507812 17.976562 0.484375 14.375 0.484375 C 10.78125 0.484375 8.015625 -0.507812 6.078125 -2.5 C 4.148438 -4.5 3.1875 -7.265625 3.1875 -10.796875 L 3.1875 -23.265625 C 3.1875 -24.117188 3.460938 -24.828125 4.015625 -25.390625 C 4.578125 -25.960938 5.285156 -26.25 6.140625 -26.25 C 6.984375 -26.25 7.679688 -25.960938 8.234375 -25.390625 C 8.796875 -24.828125 9.078125 -24.117188 9.078125 -23.265625 L 9.078125 -10.796875 C 9.078125 -8.796875 9.519531 -7.3125 10.40625 -6.34375 C 11.289062 -5.382812 12.613281 -4.90625 14.375 -4.90625 C 16.175781 -4.90625 17.519531 -5.382812 18.40625 -6.34375 C 19.289062 -7.3125 19.734375 -8.796875 19.734375 -10.796875 L 19.734375 -23.265625 C 19.734375 -24.117188 20.007812 -24.828125 20.5625 -25.390625 C 21.113281 -25.960938 21.816406 -26.25 22.671875 -26.25 Z M 22.671875 -26.25 "/></g></g></g><g fill="#c43c1e" fill-opacity="1"><g transform="translate(110.971948, 272.846728)"><g><path d="M 16.828125 -26.75 C 17.816406 -26.75 18.644531 -26.46875 19.3125 -25.90625 C 19.976562 -25.351562 20.3125 -24.703125 20.3125 -23.953125 C 20.3125 -22.929688 20.050781 -22.164062 19.53125 -21.65625 C 19.007812 -21.15625 18.390625 -20.90625 17.671875 -20.90625 C 17.179688 -20.90625 16.625 -21.019531 16 -21.25 C 15.90625 -21.28125 15.6875 -21.34375 15.34375 -21.4375 C 15 -21.539062 14.628906 -21.59375 14.234375 -21.59375 C 13.378906 -21.59375 12.554688 -21.332031 11.765625 -20.8125 C 10.984375 -20.289062 10.335938 -19.492188 9.828125 -18.421875 C 9.328125 -17.359375 9.078125 -16.09375 9.078125 -14.625 L 9.078125 -3 C 9.078125 -2.144531 8.796875 -1.429688 8.234375 -0.859375 C 7.679688 -0.285156 6.984375 0 6.140625 0 C 5.285156 0 4.578125 -0.285156 4.015625 -0.859375 C 3.460938 -1.429688 3.1875 -2.144531 3.1875 -3 L 3.1875 -23.265625 C 3.1875 -24.117188 3.460938 -24.828125 4.015625 -25.390625 C 4.578125 -25.960938 5.285156 -26.25 6.140625 -26.25 C 6.984375 -26.25 7.679688 -25.960938 8.234375 -25.390625 C 8.796875 -24.828125 9.078125 -24.117188 9.078125 -23.265625 L 9.078125 -22.625 C 9.828125 -23.96875 10.90625 -24.988281 12.3125 -25.6875 C 13.71875 -26.394531 15.222656 -26.75 16.828125 -26.75 Z M 16.828125 -26.75 "/></g></g></g><g fill="#c43c1e" fill-opacity="1"><g transform="translate(101.756683, 325.213825)"><g><path d="M 17.859375 -34.359375 C 19.535156 -34.359375 21.125 -33.859375 22.625 -32.859375 C 24.125 -31.859375 25.332031 -30.515625 26.25 -28.828125 C 27.164062 -27.148438 27.625 -25.3125 27.625 -23.3125 C 27.625 -21.351562 27.164062 -19.519531 26.25 -17.8125 C 25.332031 -16.113281 24.125 -14.765625 22.625 -13.765625 C 21.125 -12.765625 19.535156 -12.265625 17.859375 -12.265625 L 9.328125 -12.265625 L 9.328125 -3 C 9.328125 -2.113281 9.0625 -1.390625 8.53125 -0.828125 C 8.007812 -0.273438 7.328125 0 6.484375 0 C 5.660156 0 4.988281 -0.285156 4.46875 -0.859375 C 3.945312 -1.429688 3.6875 -2.144531 3.6875 -3 L 3.6875 -31.359375 C 3.6875 -32.210938 3.972656 -32.925781 4.546875 -33.5 C 5.117188 -34.070312 5.828125 -34.359375 6.671875 -34.359375 Z M 17.859375 -17.859375 C 18.484375 -17.859375 19.097656 -18.117188 19.703125 -18.640625 C 20.304688 -19.171875 20.796875 -19.851562 21.171875 -20.6875 C 21.546875 -21.519531 21.734375 -22.394531 21.734375 -23.3125 C 21.734375 -24.226562 21.546875 -25.101562 21.171875 -25.9375 C 20.796875 -26.769531 20.304688 -27.4375 19.703125 -27.9375 C 19.097656 -28.445312 18.484375 -28.703125 17.859375 -28.703125 L 9.328125 -28.703125 L 9.328125 -17.859375 Z M 17.859375 -17.859375 "/></g></g></g><g fill="#c43c1e" fill-opacity="1"><g transform="translate(131.345639, 325.213825)"><g><path d="M 9.5625 -3 C 9.5625 -2.144531 9.273438 -1.429688 8.703125 -0.859375 C 8.140625 -0.285156 7.429688 0 6.578125 0 C 5.753906 0 5.066406 -0.285156 4.515625 -0.859375 C 3.960938 -1.429688 3.6875 -2.144531 3.6875 -3 L 3.6875 -33.328125 C 3.6875 -34.171875 3.972656 -34.878906 4.546875 -35.453125 C 5.117188 -36.023438 5.828125 -36.3125 6.671875 -36.3125 C 7.492188 -36.3125 8.179688 -36.023438 8.734375 -35.453125 C 9.285156 -34.878906 9.5625 -34.171875 9.5625 -33.328125 Z M 9.5625 -3 "/></g></g></g><g fill="#c43c1e" fill-opacity="1"><g transform="translate(144.594426, 325.213825)"><g><path d="M 24.4375 -26.75 C 25.289062 -26.75 25.992188 -26.46875 26.546875 -25.90625 C 27.109375 -25.351562 27.390625 -24.632812 27.390625 -23.75 L 27.390625 -3 C 27.390625 -2.144531 27.109375 -1.429688 26.546875 -0.859375 C 25.992188 -0.285156 25.289062 0 24.4375 0 C 23.59375 0 22.898438 -0.273438 22.359375 -0.828125 C 21.816406 -1.390625 21.53125 -2.09375 21.5 -2.9375 C 20.675781 -1.988281 19.566406 -1.179688 18.171875 -0.515625 C 16.785156 0.148438 15.328125 0.484375 13.796875 0.484375 C 11.535156 0.484375 9.488281 -0.09375 7.65625 -1.25 C 5.820312 -2.414062 4.375 -4.023438 3.3125 -6.078125 C 2.25 -8.140625 1.71875 -10.484375 1.71875 -13.109375 C 1.71875 -15.722656 2.238281 -18.066406 3.28125 -20.140625 C 4.332031 -22.222656 5.765625 -23.84375 7.578125 -25 C 9.398438 -26.164062 11.40625 -26.75 13.59375 -26.75 C 15.164062 -26.75 16.640625 -26.460938 18.015625 -25.890625 C 19.390625 -25.316406 20.550781 -24.585938 21.5 -23.703125 L 21.5 -23.75 C 21.5 -24.601562 21.773438 -25.316406 22.328125 -25.890625 C 22.890625 -26.460938 23.59375 -26.75 24.4375 -26.75 Z M 14.53125 -4.90625 C 16.65625 -4.90625 18.382812 -5.679688 19.71875 -7.234375 C 21.0625 -8.785156 21.734375 -10.742188 21.734375 -13.109375 C 21.734375 -15.460938 21.0625 -17.421875 19.71875 -18.984375 C 18.382812 -20.554688 16.65625 -21.34375 14.53125 -21.34375 C 12.4375 -21.34375 10.71875 -20.554688 9.375 -18.984375 C 8.03125 -17.421875 7.359375 -15.460938 7.359375 -13.109375 C 7.359375 -10.742188 8.019531 -8.785156 9.34375 -7.234375 C 10.675781 -5.679688 12.40625 -4.90625 14.53125 -4.90625 Z M 14.53125 -4.90625 "/></g></g></g><g fill="#c43c1e" fill-opacity="1"><g transform="translate(175.16477, 325.213825)"><g><path d="M 14.625 -26.75 C 17.40625 -26.75 19.644531 -26.3125 21.34375 -25.4375 C 23.050781 -24.570312 23.90625 -23.421875 23.90625 -21.984375 C 23.90625 -21.265625 23.691406 -20.632812 23.265625 -20.09375 C 22.835938 -19.550781 22.28125 -19.28125 21.59375 -19.28125 C 21.070312 -19.28125 20.644531 -19.351562 20.3125 -19.5 C 19.988281 -19.65625 19.671875 -19.851562 19.359375 -20.09375 C 19.046875 -20.34375 18.742188 -20.550781 18.453125 -20.71875 C 18.128906 -20.875 17.644531 -21.015625 17 -21.140625 C 16.363281 -21.273438 15.847656 -21.34375 15.453125 -21.34375 C 13.003906 -21.34375 11.082031 -20.582031 9.6875 -19.0625 C 8.300781 -17.539062 7.609375 -15.554688 7.609375 -13.109375 C 7.609375 -10.742188 8.3125 -8.785156 9.71875 -7.234375 C 11.125 -5.679688 12.921875 -4.90625 15.109375 -4.90625 C 16.710938 -4.90625 17.910156 -5.101562 18.703125 -5.5 C 18.898438 -5.59375 19.171875 -5.757812 19.515625 -6 C 19.859375 -6.25 20.175781 -6.4375 20.46875 -6.5625 C 20.757812 -6.695312 21.117188 -6.765625 21.546875 -6.765625 C 22.359375 -6.765625 23.003906 -6.503906 23.484375 -5.984375 C 23.960938 -5.460938 24.203125 -4.789062 24.203125 -3.96875 C 24.203125 -3.1875 23.742188 -2.453125 22.828125 -1.765625 C 21.910156 -1.078125 20.695312 -0.53125 19.1875 -0.125 C 17.6875 0.28125 16.082031 0.484375 14.375 0.484375 C 11.851562 0.484375 9.632812 -0.101562 7.71875 -1.28125 C 5.8125 -2.457031 4.332031 -4.082031 3.28125 -6.15625 C 2.238281 -8.238281 1.71875 -10.554688 1.71875 -13.109375 C 1.71875 -15.753906 2.265625 -18.109375 3.359375 -20.171875 C 4.453125 -22.234375 5.976562 -23.84375 7.9375 -25 C 9.90625 -26.164062 12.132812 -26.75 14.625 -26.75 Z M 14.625 -26.75 "/></g></g></g><g fill="#c43c1e" fill-opacity="1"><g transform="translate(200.435605, 325.213825)"><g><path d="M 26.75 -13.734375 C 26.71875 -12.953125 26.40625 -12.316406 25.8125 -11.828125 C 25.226562 -11.335938 24.539062 -11.09375 23.75 -11.09375 L 7.5625 -11.09375 C 7.945312 -9.164062 8.84375 -7.648438 10.25 -6.546875 C 11.664062 -5.453125 13.253906 -4.90625 15.015625 -4.90625 C 16.359375 -4.90625 17.40625 -5.023438 18.15625 -5.265625 C 18.90625 -5.515625 19.5 -5.78125 19.9375 -6.0625 C 20.382812 -6.34375 20.691406 -6.53125 20.859375 -6.625 C 21.441406 -6.914062 22 -7.0625 22.53125 -7.0625 C 23.21875 -7.0625 23.804688 -6.816406 24.296875 -6.328125 C 24.785156 -5.835938 25.03125 -5.265625 25.03125 -4.609375 C 25.03125 -3.722656 24.570312 -2.921875 23.65625 -2.203125 C 22.738281 -1.453125 21.507812 -0.816406 19.96875 -0.296875 C 18.4375 0.222656 16.882812 0.484375 15.3125 0.484375 C 12.5625 0.484375 10.164062 -0.0820312 8.125 -1.21875 C 6.082031 -2.363281 4.503906 -3.941406 3.390625 -5.953125 C 2.273438 -7.972656 1.71875 -10.242188 1.71875 -12.765625 C 1.71875 -15.578125 2.304688 -18.046875 3.484375 -20.171875 C 4.660156 -22.296875 6.210938 -23.921875 8.140625 -25.046875 C 10.078125 -26.179688 12.140625 -26.75 14.328125 -26.75 C 16.484375 -26.75 18.519531 -26.160156 20.4375 -24.984375 C 22.351562 -23.804688 23.882812 -22.21875 25.03125 -20.21875 C 26.175781 -18.21875 26.75 -16.054688 26.75 -13.734375 Z M 14.328125 -21.34375 C 10.535156 -21.34375 8.296875 -19.5625 7.609375 -16 L 20.46875 -16 L 20.46875 -16.34375 C 20.332031 -17.71875 19.660156 -18.894531 18.453125 -19.875 C 17.242188 -20.851562 15.867188 -21.34375 14.328125 -21.34375 Z M 14.328125 -21.34375 "/></g></g></g><g fill="#c43c1e" fill-opacity="1"><g transform="translate(228.895963, 325.213825)"><g><path d="M 1.671875 -4.078125 C 1.378906 -4.460938 1.234375 -4.953125 1.234375 -5.546875 C 1.234375 -6.398438 1.65625 -7.117188 2.5 -7.703125 C 2.957031 -7.992188 3.429688 -8.140625 3.921875 -8.140625 C 4.609375 -8.140625 5.265625 -7.832031 5.890625 -7.21875 C 6.867188 -6.195312 7.890625 -5.441406 8.953125 -4.953125 C 10.015625 -4.460938 11.300781 -4.21875 12.8125 -4.21875 C 15.363281 -4.320312 16.640625 -5.285156 16.640625 -7.109375 C 16.640625 -8.066406 16.203125 -8.789062 15.328125 -9.28125 C 14.460938 -9.769531 13.113281 -10.257812 11.28125 -10.75 C 9.382812 -11.269531 7.835938 -11.789062 6.640625 -12.3125 C 5.453125 -12.84375 4.421875 -13.640625 3.546875 -14.703125 C 2.679688 -15.765625 2.25 -17.195312 2.25 -19 C 2.25 -20.5625 2.695312 -21.921875 3.59375 -23.078125 C 4.5 -24.242188 5.679688 -25.144531 7.140625 -25.78125 C 8.597656 -26.425781 10.144531 -26.75 11.78125 -26.75 C 13.445312 -26.75 15.113281 -26.4375 16.78125 -25.8125 C 18.445312 -25.1875 19.757812 -24.269531 20.71875 -23.0625 C 21.132812 -22.539062 21.34375 -21.953125 21.34375 -21.296875 C 21.34375 -20.546875 21.035156 -19.925781 20.421875 -19.4375 C 19.960938 -19.070312 19.4375 -18.890625 18.84375 -18.890625 C 18.125 -18.890625 17.535156 -19.117188 17.078125 -19.578125 C 16.492188 -20.296875 15.734375 -20.867188 14.796875 -21.296875 C 13.859375 -21.722656 12.800781 -21.9375 11.625 -21.9375 C 9.144531 -21.9375 7.90625 -21.035156 7.90625 -19.234375 C 7.90625 -18.515625 8.132812 -17.929688 8.59375 -17.484375 C 9.050781 -17.046875 9.628906 -16.703125 10.328125 -16.453125 C 11.035156 -16.210938 12.023438 -15.914062 13.296875 -15.5625 C 15.066406 -15.070312 16.539062 -14.5625 17.71875 -14.03125 C 18.894531 -13.507812 19.890625 -12.707031 20.703125 -11.625 C 21.523438 -10.550781 21.9375 -9.128906 21.9375 -7.359375 C 21.9375 -5.753906 21.460938 -4.351562 20.515625 -3.15625 C 19.566406 -1.96875 18.347656 -1.0625 16.859375 -0.4375 C 15.367188 0.175781 13.835938 0.484375 12.265625 0.484375 C 10.109375 0.484375 8.097656 0.125 6.234375 -0.59375 C 4.367188 -1.3125 2.847656 -2.472656 1.671875 -4.078125 Z M 1.671875 -4.078125 "/></g></g></g></svg>